<svg width="76" height="77" viewBox="0 0 76 77" fill="none" xmlns="http://www.w3.org/2000/svg">
<path d="M45.5218 25.502C39.0114 13.0997 20.023 25.502 31.9586 33.9356C42.8091 41.6025 45.383 41.1232 47.1493 44.3535C49.3194 48.3223 46.0643 56.2598 36.8413 56.2598C29.463 56.2598 23.2781 51.7949 25.9908 49.3145L64.8401 24.7598" stroke="#35F2B3" style="stroke:#35F2B3;stroke:color(display-p3 0.2078 0.9490 0.7020);stroke-opacity:1;" stroke-width="4" stroke-linecap="round"/>
<path d="M50.8386 10.7384C44.3819 7.51385 37.0403 6.68989 30.1181 8.42766C23.1951 10.1656 17.1524 14.3504 13.0633 20.2327C8.97508 26.1138 7.10792 33.3047 7.77831 40.5247C8.44862 47.7439 11.613 54.5351 16.7103 59.6956C21.8082 64.8566 28.5175 68.0598 35.6535 68.7227C42.791 69.3858 49.8873 67.4633 55.677 63.2919C61.4661 59.1208 65.5634 52.9791 67.2516 45.9673C68.9395 38.9568 68.1115 31.5275 64.9239 24.9953" stroke="#35F2B3" style="stroke:#35F2B3;stroke:color(display-p3 0.2078 0.9490 0.7020);stroke-opacity:1;" stroke-width="4" stroke-linecap="round"/>
</svg>
